<svg xmlns="http://www.w3.org/2000/svg" xmlns:xlink="http://www.w3.org/1999/xlink" viewBox="0,0,256,256" width="24px" height="24px" fill-rule="nonzero"><g fill="#339af0" fill-rule="nonzero" stroke="none" stroke-width="1" stroke-linecap="butt" stroke-linejoin="miter" stroke-miterlimit="10" stroke-dasharray="" stroke-dashoffset="0" font-family="none" font-weight="none" font-size="none" text-anchor="none" style="mix-blend-mode: normal"><g transform="scale(10.66667,10.66667)"><path d="M18,2h-12c-1.105,0 -2,0.895 -2,2v16c0,1.105 0.895,2 2,2h12c1.105,0 2,-0.895 2,-2v-16c0,-1.105 -0.895,-2 -2,-2zM12,6c1.7,0 3,1.3 3,3c0,1.7 -1.3,3 -3,3c-1.7,0 -3,-1.3 -3,-3c0,-1.7 1.3,-3 3,-3zM17,18h-10c0,0 0,-0.585 0,-1c0,-1.571 2.512,-3 5,-3c2.488,0 5,1.429 5,3c0,0.415 0,1 0,1z"></path></g></g></svg>